<svg width="418" height="166" viewBox="0 0 418 166" fill="none" xmlns="http://www.w3.org/2000/svg">
<path d="M4.42969 33.035V3.55762H31.2673" stroke="white" stroke-width="7.03937"/>
<path d="M4.42969 132.906V162.383H31.2673" stroke="white" stroke-width="7.03937"/>
<path d="M414.033 132.026V161.503H387.195" stroke="white" stroke-width="7.03937"/>
<path d="M414.033 33.035V3.55762H387.195" stroke="white" stroke-width="7.03937"/>
<rect x="20.7107" y="21.5963" width="376.606" height="127.589" fill="#040F85" stroke="white" stroke-width="6.15945"/>
<path d="M100.469 39.7064H77.5814V73.4355H83.749L83.7008 45.0067H100.421L100.469 39.7064ZM117.472 73.9174C127.929 73.9174 135.638 66.5933 135.638 56.571C135.638 46.5486 127.929 39.2246 117.472 39.2246C107.016 39.2246 99.3069 46.5968 99.3069 56.571C99.3069 66.5452 107.016 73.9174 117.472 73.9174ZM117.472 68.4244C110.678 68.4244 105.619 63.4614 105.619 56.571C105.619 49.6806 110.678 44.7176 117.472 44.7176C124.266 44.7176 129.326 49.6806 129.326 56.571C129.326 63.4614 124.266 68.4244 117.472 68.4244ZM145.622 39.7064L145.14 53.6799C144.802 63.1722 143.55 68.1834 139.454 68.1834C138.924 68.1834 138.49 68.1353 138.008 67.9907L137.575 73.4355C138.876 73.7247 139.936 73.9174 140.996 73.9174C148.272 73.9174 150.247 66.7379 150.681 53.439L150.97 45.0067H164.269V73.4355H170.437V39.7064H145.622ZM195.537 73.9174C205.993 73.9174 213.703 66.5933 213.703 56.571C213.703 46.5486 205.993 39.2246 195.537 39.2246C185.081 39.2246 177.371 46.5968 177.371 56.571C177.371 66.5452 185.081 73.9174 195.537 73.9174ZM195.537 68.4244C188.743 68.4244 183.684 63.4614 183.684 56.571C183.684 49.6806 188.743 44.7176 195.537 44.7176C202.331 44.7176 207.39 49.6806 207.39 56.571C207.39 63.4614 202.331 68.4244 195.537 68.4244ZM242.841 55.8964C245.973 54.5472 247.804 51.9934 247.804 48.3796C247.804 42.7902 243.275 39.7064 235.758 39.7064H220.676V73.4355H236.673C245.057 73.4355 249.442 69.9181 249.442 64.0878C249.442 59.8475 247.081 57.0528 242.841 55.8964ZM226.844 44.5249H235.228C239.275 44.5249 241.444 46.1631 241.444 49.3433C241.444 52.4753 239.275 54.1136 235.228 54.1136H226.844V44.5249ZM236.481 68.6171H226.844V58.6911H236.481C240.817 58.6911 243.13 60.233 243.13 63.6059C243.13 66.9788 240.817 68.6171 236.481 68.6171ZM280.285 39.7064V53.6317H262.842V39.7064H256.578V73.4355H262.842V58.9802H280.285V73.4355H286.549V39.7064H280.285ZM302.274 68.1834V58.8838H318.561V53.7281H302.274V44.9585H320.633V39.7064H296.01V73.4355H321.307V68.1834H302.274Z" fill="white"/>
<path d="M111.124 98.7064L100.86 118.51L90.8861 98.7064H84.1885L97.6319 123.859L97.1019 124.678C95.7046 126.894 94.0663 127.81 92.0907 127.81C91.0788 127.81 90.0188 127.569 88.8142 127.183L87.2723 132.098C88.9587 132.821 90.6452 133.158 92.2353 133.158C96.331 133.158 100.041 130.845 102.643 125.931L117.291 98.7064H111.124ZM143.957 132.436H151.04L139.09 115.041L150.606 98.7064H143.957L134.272 112.824H127.815V98.7064H121.647V132.436H127.815V118.221H134.079L143.957 132.436ZM169.169 98.7064H155.292V132.436H161.556V122.702H169.169C178.035 122.702 183.528 118.125 183.528 110.704C183.528 103.236 178.035 98.7064 169.169 98.7064ZM168.88 117.402H161.556V104.007H168.88C174.373 104.007 177.216 106.464 177.216 110.704C177.216 114.945 174.373 117.402 168.88 117.402ZM213.49 132.436H220.044L204.817 98.7064H198.65L183.471 132.436H189.928L193.253 124.63H210.117L213.49 132.436ZM195.373 119.715L201.685 104.97L208.046 119.715H195.373ZM223.481 95.4299C225.119 95.4299 226.42 94.2252 226.42 92.5388C226.42 90.8041 225.119 89.5995 223.481 89.5995C221.891 89.5995 220.59 90.8041 220.59 92.5388C220.59 94.2252 221.891 95.4299 223.481 95.4299ZM232.829 95.4299C234.467 95.4299 235.768 94.2252 235.768 92.5388C235.768 90.8041 234.467 89.5995 232.829 89.5995C231.239 89.5995 229.938 90.8041 229.938 92.5388C229.938 94.2252 231.239 95.4299 232.829 95.4299ZM225.023 132.436H231.287V98.7064H225.023V132.436ZM264.31 98.7064V112.632H246.867V98.7064H240.603V132.436H246.867V117.98H264.31V132.436H270.574V98.7064H264.31ZM305.766 132.436H312.319L297.092 98.7064H290.925L275.747 132.436H282.203L285.528 124.63H302.393L305.766 132.436ZM287.648 119.715L293.96 104.97L300.321 119.715H287.648Z" fill="#FFE600"/>
</svg>
