<svg width="23" height="23" viewBox="0 0 23 23" fill="none" xmlns="http://www.w3.org/2000/svg">
<path d="M18.1464 4.73416C17.2522 3.83113 16.1884 3.11368 15.0161 2.62301C13.8438 2.13235 12.5861 1.87816 11.3152 1.87503C10.0444 1.8719 8.78547 2.1199 7.61077 2.60479C6.43607 3.08967 5.36875 3.80188 4.47013 4.7005C3.57151 5.59913 2.8593 6.66644 2.37441 7.84115C1.88953 9.01585 1.64152 10.2748 1.64465 11.5456C1.64778 12.8165 1.90198 14.0742 2.39264 15.2465C2.8833 16.4188 3.60075 17.4826 4.50379 18.3767C5.39797 19.2798 6.46178 19.9972 7.63408 20.4879C8.80638 20.9786 10.0641 21.2327 11.3349 21.2359C12.6057 21.239 13.8647 20.991 15.0394 20.5061C16.2141 20.0212 17.2814 19.309 18.18 18.4104C19.0786 17.5118 19.7909 16.4445 20.2757 15.2698C20.7606 14.0951 21.0086 12.8361 21.0055 11.5653C21.0024 10.2945 20.7482 9.03675 20.2575 7.86445C19.7669 6.69215 19.0494 5.62835 18.1464 4.73416ZM3.05633 11.5555C3.05602 10.8236 3.15305 10.095 3.34487 9.38878C3.66098 10.0692 4.12007 10.6571 4.4323 11.3552C4.83583 12.2527 5.91938 12.0038 6.39785 12.7902C6.82248 13.4883 6.36899 14.3711 6.68682 15.1015C6.91766 15.6317 7.46202 15.7475 7.83756 16.1351C8.22128 16.5262 8.2131 17.0619 8.27167 17.5718C8.33776 18.1709 8.44496 18.7648 8.59251 19.3492C8.59251 19.3535 8.59251 19.3582 8.59596 19.3625C5.3733 18.2307 3.05633 15.1588 3.05633 11.5555ZM11.3251 19.8242C10.8633 19.8241 10.4023 19.7855 9.94695 19.7088C9.95169 19.5921 9.95384 19.4831 9.96547 19.4073C10.0701 18.7226 10.4129 18.0529 10.8755 17.5404C11.3324 17.0348 11.9586 16.6928 12.3445 16.1192C12.7226 15.5593 12.8358 14.8057 12.6799 14.1515C12.4504 13.1851 11.1373 12.8625 10.4293 12.3384C10.0223 12.0369 9.66013 11.571 9.12567 11.5331C8.87933 11.5158 8.67305 11.5688 8.42886 11.5059C8.20492 11.4478 8.0292 11.3272 7.79062 11.3586C7.34488 11.4172 7.06365 11.8935 6.58476 11.8289C6.13041 11.7682 5.66227 11.2363 5.55891 10.8035C5.42627 10.2471 5.86641 10.0666 6.33799 10.0171C6.5348 9.99645 6.75573 9.97405 6.94479 10.0464C7.19372 10.1386 7.31129 10.3823 7.5348 10.5055C7.95384 10.7355 8.03868 10.3681 7.97451 9.99602C7.87847 9.43874 7.7665 9.21178 8.26349 8.82806C8.60802 8.56363 8.90259 8.37242 8.84747 7.89739C8.81474 7.61832 8.66185 7.49214 8.8044 7.21436C8.9125 7.0029 9.20922 6.81212 9.40259 6.68593C9.90173 6.36035 11.5408 6.38447 10.8712 5.47318C10.6743 5.20574 10.3113 4.72771 9.96676 4.66224C9.5361 4.58085 9.34488 5.06147 9.04471 5.27336C8.73463 5.49256 8.13084 5.74149 7.82033 5.40256C7.40259 4.94648 8.09725 4.79704 8.251 4.47835C8.32206 4.32977 8.251 4.12348 8.13127 3.92925C8.2866 3.86379 8.44451 3.80307 8.605 3.74708C8.70558 3.82137 8.8249 3.86612 8.94953 3.87628C9.23765 3.89523 9.5094 3.73933 9.7609 3.93571C10.04 4.15105 10.2411 4.42323 10.6115 4.49041C10.9698 4.55544 11.3492 4.34657 11.4379 3.97964C11.4917 3.75656 11.4379 3.52098 11.3862 3.29058C12.9969 3.29985 14.5694 3.78222 15.9082 4.67775C15.8221 4.64502 15.7191 4.64889 15.5921 4.70789C15.3307 4.82934 14.9603 5.13856 14.9297 5.44519C14.8949 5.79317 15.4082 5.84226 15.652 5.84226C16.018 5.84226 16.3888 5.67861 16.2708 5.2557C16.2196 5.07224 16.1498 4.88145 16.0374 4.76603C16.3076 4.95353 16.5665 5.15687 16.8126 5.37499C16.8087 5.37887 16.8048 5.38231 16.801 5.38662C16.5529 5.64502 16.2648 5.84959 16.0951 6.16397C15.9754 6.38533 15.8406 6.49041 15.5981 6.54769C15.4646 6.57913 15.3122 6.59076 15.2002 6.68034C14.8884 6.92581 15.0658 7.51582 15.3613 7.69283C15.7346 7.91634 16.2885 7.81126 16.5701 7.49214C16.7902 7.24235 16.9198 6.80867 17.3156 6.8091C17.4899 6.80874 17.6572 6.87697 17.7816 6.99903C17.9452 7.16871 17.9129 7.32719 17.9478 7.53908C18.0094 7.91548 18.3415 7.71135 18.5434 7.52142C18.6907 7.78345 18.8235 8.0533 18.9414 8.32978C18.7191 8.64976 18.5426 8.9986 18.0081 8.62565C17.6881 8.40213 17.4913 8.07784 17.0895 7.97707C16.7385 7.89093 16.3789 7.98051 16.0322 8.04037C15.6382 8.10885 15.1709 8.13899 14.872 8.43745C14.583 8.72513 14.4302 9.11014 14.1227 9.39912C13.5279 9.95898 13.2768 10.5701 13.6619 11.3617C14.0322 12.1226 14.807 12.5356 15.6429 12.4814C16.4642 12.4267 17.3173 11.9504 17.2937 13.1437C17.285 13.5662 17.3733 13.8586 17.503 14.251C17.6231 14.6127 17.6149 14.9633 17.6425 15.3367C17.6687 15.7739 17.7371 16.2076 17.8466 16.6317C17.0747 17.6256 16.0858 18.4299 14.9556 18.9832C13.8253 19.5365 12.5835 19.8242 11.3251 19.8242Z" fill="#6C6C6C"/>
</svg>
